<?xml version="1.0" encoding="utf-8"?>
<!-- Generator: Adobe Illustrator 27.0.1, SVG Export Plug-In . SVG Version: 6.00 Build 0)  -->
<svg version="1.1" id="Layer_1" xmlns="http://www.w3.org/2000/svg" xmlns:xlink="http://www.w3.org/1999/xlink" x="0px" y="0px"
	 viewBox="0 0 841.9 1190.6" style="enable-background:new 0 0 841.9 1190.6;" xml:space="preserve">
<style type="text/css">
	.st0{fill:#FFFFFF;}
</style>
<g>
	<path class="st0" d="M308.3,528.1c-18.9,13.5-40.4,20.7-61.4,28.8c-25.1,9.7-50.1,19.9-72.8,34.7c-38.5,25.1-64,59.4-73.6,104.7
		c-7.2,33.9-5.2,68.1-3.2,102.3c0.5,7.9,4.6,14.1,11.2,19.2c18.8,14.5,39.2,26.2,60.9,35.7c48.3,21.1,99.1,31.8,151.1,38.1
		c2.5,0.3,5.1,0,7.9,0c3.8-13.1-4.7-28.7,9.6-37.6c4-49.5,40.7-68.8,68.6-69c16.5-0.1,31.5,4.6,44.4,15c17.2,13.8,25,32.2,26.2,54
		c7.8,5,9.4,12.4,8.8,20.9c-0.4,5.2-0.1,10.5-0.1,16.4c4,0,7,0.5,9.7-0.1c31-5.9,62.3-10.5,92.8-18.4
		c42.1-10.8,81.6-28.2,116.3-55.2c6.2-4.8,9.7-10.4,10.7-18.2c3.1-22.4,4.9-44.9,3.8-67.6c-1.8-39.2-12.5-75.2-38.4-105.7
		c-20-23.6-45.3-39.6-72.9-52.8c-32.9-15.7-68.8-24.6-100.4-44.1c-2.2,2.7-4,4.9-5.8,7.3c-15.6,19.8-34.3,36-55.8,49.1
		c-25,15.3-49.6,14.4-74.5,0.1c-20.2-11.6-37.1-26.7-52.2-44.3C315.8,537.3,312.3,532.9,308.3,528.1z M266,331.6
		c-11.6,6.2-13.2,9.1-11.8,22.4c2.1,18.9,10.3,34.9,24.1,48c6,5.7,9.4,12.4,11.5,20.4c3.6,13.8,7.4,27.6,12.6,40.9
		c11.2,28.4,28.7,52.3,54.4,69.6c35.1,23.6,71.4,23.2,105.9-1.2c14.3-10.1,25.7-23,35.2-37.6c13-20,22-41.7,27.6-64.8
		c3-12.3,7.7-23.1,18.1-31.2c6.7-5.2,11.4-12.4,13.1-20.7c2.3-10.7,3.7-21.5,4.9-32.4c0.4-3.3-1.4-6.8-2.2-10
		c-3.8-1-6.6-1.7-9.1-2.3c-0.2-0.9-0.4-1.2-0.4-1.5c0.7-5.6,1.4-11.2,2-16.8c5.8-51.5-11.8-93.6-54.5-122.5
		c-45.3-30.6-95.4-33.7-147.1-18.2c-13.8,4.1-26.1,11.6-37.5,20.4c-7.8,6-13.1,13.1-12.3,23.6c0.1,1.3-0.5,2.6-0.7,4
		c-3.1,2-6,4.4-9.2,6c-12.9,6.6-19.2,17.8-22.6,31.2c-4.7,18.9-7.1,37.8-3.9,57.2C264.9,321.3,265.4,326.5,266,331.6z M340.8,865.2
		c0,30.9,0,60.6,0,90.1c10.1,2.7,125.9,2.4,133.5-0.1c2.4-13.3,1.6-83.2-1.2-90C429.5,865.2,385.7,865.2,340.8,865.2z M363.3,859.4
		c0.5-3.7,1-6.6,1.4-9.5c3-23.1,21.5-39.6,43.9-39.3c22.8,0.3,41,17.6,43.3,41.2c0.2,2.5,0.8,5,1.2,7.4c4.7,0,8.5,0,12.3,0
		c4.5-24.3-11.4-45.9-26.5-55.3c-19.8-12.4-46.4-11.4-65.6,2.7c-17.4,12.8-27.5,35.7-22.8,52.8C354.3,859.4,358.2,859.4,363.3,859.4
		z M375.3,852.8c11.2,2.3,58.2,1.9,65.4-0.4c-0.3-17.3-14.1-30.7-32-31.3C391.1,820.5,377.1,833.5,375.3,852.8z"/>
	<path d="M308.3,528.1c4,4.8,7.5,9.2,11.2,13.4c15,17.5,32,32.7,52.2,44.3c24.9,14.3,49.5,15.2,74.5-0.1
		c21.5-13.2,40.2-29.3,55.8-49.1c1.8-2.3,3.7-4.6,5.8-7.3c31.6,19.5,67.4,28.4,100.4,44.1c27.6,13.1,52.9,29.2,72.9,52.8
		c25.8,30.5,36.6,66.5,38.4,105.7c1,22.6-0.8,45.1-3.8,67.6c-1.1,7.8-4.6,13.4-10.7,18.2c-34.7,27-74.2,44.4-116.3,55.2
		c-30.5,7.8-61.8,12.4-92.8,18.4c-2.8,0.5-5.8,0.1-9.7,0.1c0-5.9-0.3-11.2,0.1-16.4c0.6-8.5-1-15.9-8.8-20.9
		c-1.2-21.8-9.1-40.2-26.2-54c-12.9-10.4-27.9-15.1-44.4-15c-27.9,0.2-64.6,19.6-68.6,69c-14.4,8.8-5.8,24.5-9.6,37.6
		c-2.8,0-5.4,0.3-7.9,0c-52-6.3-102.9-17-151.1-38.1c-21.7-9.5-42.1-21.2-60.9-35.7c-6.5-5-10.7-11.3-11.2-19.2
		c-2-34.2-4-68.4,3.2-102.3c9.6-45.3,35.1-79.7,73.6-104.7c22.7-14.8,47.6-25,72.8-34.7C267.9,548.8,289.4,541.6,308.3,528.1z"/>
	<path d="M266,331.6c-0.6-5.1-1.1-10.3-1.9-15.5c-3.2-19.4-0.8-38.4,3.9-57.2c3.4-13.4,9.6-24.7,22.6-31.2c3.2-1.6,6.1-4,9.2-6
		c0.3-1.4,0.8-2.7,0.7-4c-0.8-10.5,4.6-17.6,12.3-23.6c11.4-8.8,23.7-16.2,37.5-20.4c51.7-15.5,101.8-12.4,147.1,18.2
		c42.7,28.9,60.3,71,54.5,122.5c-0.6,5.6-1.4,11.2-2,16.8c0,0.3,0.2,0.6,0.4,1.5c2.5,0.6,5.3,1.4,9.1,2.3c0.8,3.2,2.6,6.7,2.2,10
		c-1.2,10.9-2.6,21.7-4.9,32.4c-1.8,8.3-6.4,15.5-13.1,20.7c-10.3,8-15.1,18.9-18.1,31.2c-5.6,23.1-14.5,44.8-27.6,64.8
		c-9.5,14.6-21,27.4-35.2,37.6c-34.5,24.5-70.8,24.9-105.9,1.2c-25.7-17.3-43.2-41.1-54.4-69.6c-5.2-13.2-9-27.1-12.6-40.9
		c-2.1-8-5.5-14.7-11.5-20.4c-13.7-13-22-29-24.1-48C252.7,340.7,254.3,337.8,266,331.6z"/>
	<path d="M340.8,865.2c44.9,0,88.7,0,132.3,0c2.8,6.7,3.7,76.7,1.2,90c-7.6,2.5-123.5,2.8-133.5,0.1
		C340.8,925.8,340.8,896.1,340.8,865.2z M419.7,917.3c6.1-13,5.7-19.7-1.4-25.6c-6.1-5-14.2-5.6-20.1-0.6c-6,5-10.4,9.2-2.5,26.6
		c-1,5-2.1,10-3.2,15.6c10.4,0,19.8,0,30.1,0C421.5,927.4,420.7,922.6,419.7,917.3z"/>
	<path d="M363.3,859.4c-5.1,0-9,0-12.8,0c-4.7-17.1,5.4-40,22.8-52.8c19.2-14.1,45.8-15,65.6-2.7c15.1,9.4,31,31,26.5,55.3
		c-3.7,0-7.6,0-12.3,0c-0.4-2.4-0.9-4.9-1.2-7.4c-2.3-23.6-20.5-40.9-43.3-41.2c-22.4-0.3-40.8,16.2-43.9,39.3
		C364.3,852.9,363.9,855.8,363.3,859.4z"/>
	<path d="M375.3,852.8c1.8-19.3,15.7-32.3,33.5-31.7c17.9,0.6,31.6,14,32,31.3C433.5,854.7,386.5,855.1,375.3,852.8z"/>
	<path class="st0" d="M419.7,917.3c0.9,5.3,1.8,10.1,2.8,16c-10.3,0-19.6,0-30.1,0c1.1-5.5,2.2-10.5,3.2-15.6
		c-7.9-17.4-3.5-21.6,2.5-26.6c5.9-4.9,14-4.3,20.1,0.6C425.4,897.6,425.8,904.3,419.7,917.3z"/>
</g>
</svg>
